# Blender 4.5.1 LTS
# www.blender.org
o teapot
v 0.350000 0.253982 -0.000000
v 0.248500 0.253982 0.248500
v 0.249055 0.278592 0.249055
v 0.350780 0.278592 -0.000000
v 0.266250 0.253982 0.266250
v 0.375000 0.253982 -0.000000
v 0.000000 0.253982 0.350000
v 0.000000 0.278592 0.350780
v 0.000000 0.253982 0.375000
v -0.256935 0.253982 0.248500
v -0.250110 0.278592 0.249055
v -0.266250 0.253982 0.266250
v -0.350000 0.253982 -0.000000
v -0.350780 0.278592 -0.000000
v -0.375000 0.253982 -0.000000
v -0.248500 0.253982 -0.248500
v -0.249055 0.278592 -0.249055
v -0.266250 0.253982 -0.266250
v 0.000000 0.253982 -0.350000
v 0.000000 0.278592 -0.350780
v 0.000000 0.253982 -0.375000
v 0.248500 0.253982 -0.248500
v 0.249055 0.278592 -0.249055
v 0.266250 0.253982 -0.266250
v 0.327265 0.059452 0.327265
v 0.460940 0.059452 -0.000000
v 0.355000 -0.121018 0.355000
v 0.500000 -0.121018 0.000000
v 0.000000 0.059452 0.460940
v 0.000000 -0.121018 0.500000
v -0.327265 0.059452 0.327265
v -0.355000 -0.121018 0.355000
v -0.460940 0.059452 -0.000000
v -0.500000 -0.121018 0.000000
v -0.327265 0.059452 -0.327265
v -0.355000 -0.121018 -0.355000
v 0.000000 0.059452 -0.460940
v 0.000000 -0.121018 -0.500000
v 0.327265 0.059452 -0.327265
v 0.355000 -0.121018 -0.355000
v 0.310625 -0.249923 0.310625
v 0.437500 -0.249923 0.000000
v 0.266250 -0.308518 0.266250
v 0.375000 -0.308518 0.000000
v 0.000000 -0.249923 0.437500
v 0.000000 -0.308518 0.375000
v -0.310625 -0.249923 0.310625
v -0.266250 -0.308518 0.266250
v -0.437500 -0.249923 0.000000
v -0.375000 -0.308518 0.000000
v -0.310625 -0.249923 -0.310625
v -0.266250 -0.308518 -0.266250
v 0.000000 -0.249923 -0.437500
v 0.000000 -0.308518 -0.375000
v 0.310625 -0.249923 -0.310625
v 0.266250 -0.308518 -0.266250
v 0.227975 -0.334298 0.227975
v 0.321095 -0.334298 0.000000
v 0.000000 -0.346018 0.000000
v 0.000000 -0.334298 0.321095
v -0.227975 -0.334298 0.227975
v -0.321095 -0.334298 0.000000
v -0.227975 -0.334298 -0.227975
v 0.000000 -0.334298 -0.321095
v 0.227975 -0.334298 -0.227975
v -0.400000 0.160232 -0.000000
v -0.387500 0.188357 0.056250
v -0.629690 0.177812 0.056250
v -0.603125 0.153202 -0.000000
v -0.712500 0.103982 0.056250
v -0.675000 0.103982 -0.000000
v -0.375000 0.216482 -0.000000
v -0.656250 0.202422 -0.000000
v -0.750000 0.103982 -0.000000
v -0.387500 0.188357 -0.056250
v -0.629690 0.177812 -0.056250
v -0.712500 0.103982 -0.056250
v -0.658595 -0.032543 0.056250
v -0.634375 -0.008518 0.000000
v -0.487500 -0.158518 0.056250
v -0.682815 -0.056563 0.000000
v -0.475000 -0.196018 0.000000
v -0.658595 -0.032543 -0.056250
v -0.487500 -0.158518 -0.056250
v 0.425000 0.010232 -0.000000
v 0.425000 -0.092893 0.123750
v 0.634375 0.059452 0.085310
v 0.596875 0.103982 -0.000000
v 0.750000 0.253982 0.046875
v 0.675000 0.253982 -0.000000
v 0.425000 -0.196018 0.000000
v 0.671875 0.014917 -0.000000
v 0.825000 0.253982 -0.000000
v 0.425000 -0.092893 -0.123750
v 0.634375 0.059452 -0.085310
v 0.750000 0.253982 -0.046875
v 0.781640 0.270682 0.037500
v 0.706250 0.268047 -0.000000
v 0.750000 0.253982 0.028125
v 0.700000 0.253982 -0.000000
v 0.857030 0.273317 -0.000000
v 0.800000 0.253982 -0.000000
v 0.781640 0.270682 -0.037500
v 0.750000 0.253982 -0.028125
v 0.057760 0.399297 0.057760
v 0.081250 0.399297 -0.000000
v 0.000000 0.441482 -0.000000
v 0.035500 0.328982 0.035500
v 0.050000 0.328982 -0.000000
v 0.000000 0.399297 0.081250
v 0.000000 0.328982 0.050000
v -0.057760 0.399297 0.057760
v -0.035500 0.328982 0.035500
v -0.081250 0.399297 -0.000000
v -0.050000 0.328982 -0.000000
v -0.057760 0.399297 -0.057760
v -0.035500 0.328982 -0.035500
v 0.000000 0.399297 -0.081250
v 0.000000 0.328982 -0.050000
v 0.057760 0.399297 -0.057760
v 0.035500 0.328982 -0.035500
v 0.146440 0.291482 0.146440
v 0.206250 0.291482 -0.000000
v 0.230750 0.253982 0.230750
v 0.325000 0.253982 -0.000000
v 0.000000 0.291482 0.206250
v 0.000000 0.253982 0.325000
v -0.146440 0.291482 0.146440
v -0.230750 0.253982 0.230750
v -0.206250 0.291482 -0.000000
v -0.325000 0.253982 -0.000000
v -0.146440 0.291482 -0.146440
v -0.230750 0.253982 -0.230750
v 0.000000 0.291482 -0.206250
v 0.000000 0.253982 -0.325000
v 0.146440 0.291482 -0.146440
v 0.230750 0.253982 -0.230750
vn -0.7067 0.0319 -0.7067
vn -0.1417 0.9899 -0.0000
vn -0.9995 0.0317 -0.0000
vn -0.0966 0.9906 -0.0966
vn 0.8400 0.5425 -0.0000
vn 0.0023 0.9904 -0.1379
vn 0.0001 0.5433 0.8395
vn 0.5936 0.5435 0.5936
vn 0.0012 0.0541 -0.9985
vn 0.0678 0.9688 -0.2385
vn -0.5962 0.5352 0.5984
vn 0.7018 -0.2743 -0.6574
vn 0.1482 0.9889 0.0144
vn -0.8392 0.5439 -0.0012
vn 0.7067 0.0319 0.7067
vn 0.9943 0.1051 0.0201
vn 0.0966 0.9906 0.0966
vn -0.0000 0.9899 0.1417
vn -0.0000 0.5425 -0.8400
vn -0.5936 0.5435 -0.5936
vn -0.7067 0.0319 0.7067
vn -0.0000 0.0317 0.9995
vn -0.0966 0.9906 0.0966
vn 0.5936 0.5435 -0.5936
vn 0.9532 0.3025 -0.0000
vn 0.6738 0.3034 0.6738
vn 0.9939 -0.1105 -0.0000
vn -0.0000 0.3025 0.9532
vn -0.0000 -0.1105 0.9939
vn 0.7028 -0.1107 0.7028
vn -0.6738 0.3034 0.6738
vn -0.9532 0.3025 -0.0000
vn -0.9939 -0.1105 -0.0000
vn -0.7028 -0.1107 0.7028
vn -0.6738 0.3034 -0.6738
vn -0.0000 0.3025 -0.9532
vn -0.0000 -0.1105 -0.9939
vn -0.7028 -0.1107 -0.7028
vn 0.6738 0.3034 -0.6738
vn 0.7028 -0.1107 -0.7028
vn 0.5792 -0.5735 0.5792
vn 0.8198 -0.5726 -0.0000
vn 0.4157 -0.8089 0.4157
vn 0.5888 -0.8083 -0.0000
vn -0.0000 -0.5726 0.8198
vn -0.5792 -0.5735 0.5792
vn -0.4157 -0.8089 0.4157
vn -0.0000 -0.8083 0.5888
vn -0.8198 -0.5726 -0.0000
vn -0.5792 -0.5735 -0.5792
vn -0.4157 -0.8089 -0.4157
vn -0.5888 -0.8083 -0.0000
vn -0.0000 -0.5726 -0.8198
vn 0.5792 -0.5735 -0.5792
vn 0.4157 -0.8089 -0.4157
vn -0.0000 -0.8083 -0.5888
vn 0.2016 -0.9585 0.2016
vn 0.2850 -0.9585 -0.0000
vn -0.0000 -1.0000 -0.0000
vn -0.0000 -0.9585 0.2850
vn -0.2016 -0.9585 0.2016
vn -0.2850 -0.9585 -0.0000
vn -0.2016 -0.9585 -0.2016
vn -0.0000 -0.9585 -0.2850
vn 0.2016 -0.9585 -0.2016
vn -0.0163 0.2642 0.9643
vn 0.2491 -0.9684 -0.0139
vn 0.0335 -0.9994 -0.0031
vn 0.0100 0.1692 0.9855
vn 0.9298 -0.3658 -0.0411
vn -0.0450 0.9990 0.0014
vn -0.4425 0.8967 0.0044
vn -0.3032 0.1168 0.9457
vn 0.0063 0.1729 -0.9849
vn -0.2694 0.1027 -0.9575
vn -0.9863 0.1651 -0.0032
vn -0.0157 0.2602 -0.9654
vn 0.8289 0.5593 -0.0134
vn -0.1115 -0.0737 0.9910
vn 0.6069 0.7942 -0.0290
vn -0.7841 -0.6206 0.0079
vn -0.3534 -0.5429 0.7618
vn -0.3230 -0.5244 -0.7878
vn -0.5545 -0.8321 0.0076
vn -0.1021 -0.0951 -0.9902
vn -0.4885 0.8726 -0.0072
vn 0.2052 0.0282 0.9783
vn -0.7440 0.6678 0.0236
vn -0.6974 0.7144 0.0564
vn 0.3245 -0.2475 0.9129
vn 0.7848 -0.6196 -0.0174
vn -0.0408 0.2940 0.9549
vn 0.3423 -0.2439 -0.9074
vn 0.6475 -0.7621 -0.0025
vn 0.0592 0.3207 -0.9453
vn 0.6035 -0.7910 -0.1004
vn 0.1831 -0.0165 -0.9830
vn 0.0307 0.9973 0.0671
vn 0.3038 -0.0791 -0.9495
vn 0.9551 -0.2960 0.0142
vn 0.2492 0.7396 0.6252
vn -0.3214 0.9469 -0.0029
vn 0.4059 0.7443 -0.5303
vn 0.8746 0.4661 -0.1337
vn 0.3288 -0.1526 0.9320
vn 0.6774 0.2869 0.6774
vn 0.9576 0.2881 -0.0000
vn -0.0000 1.0000 -0.0000
vn 0.5955 0.5396 0.5952
vn 0.8433 0.5375 0.0004
vn -0.0000 0.2881 0.9576
vn -0.6774 0.2869 0.6774
vn -0.5952 0.5396 0.5955
vn -0.0005 0.5368 0.8437
vn -0.9576 0.2881 -0.0000
vn -0.6774 0.2869 -0.6774
vn -0.5955 0.5396 -0.5952
vn -0.8436 0.5369 -0.0004
vn -0.0000 0.2881 -0.9576
vn 0.6774 0.2869 -0.6774
vn 0.5952 0.5396 -0.5955
vn 0.0005 0.5368 -0.8437
vn 0.2754 0.9613 -0.0000
vn 0.1942 0.9616 0.1942
vn 0.3011 0.9536 -0.0000
vn -0.0000 0.9613 0.2754
vn -0.0000 0.9536 0.3011
vn 0.2121 0.9539 0.2121
vn -0.1942 0.9616 0.1942
vn -0.2754 0.9613 -0.0000
vn -0.3011 0.9536 -0.0000
vn -0.2121 0.9539 0.2121
vn -0.1942 0.9616 -0.1942
vn -0.0000 0.9613 -0.2754
vn -0.0000 0.9536 -0.3011
vn -0.2121 0.9539 -0.2121
vn 0.1942 0.9616 -0.1942
vn 0.2121 0.9539 -0.2121
vt 0.421096 0.246744
vt 0.435144 0.288551
vt 0.430549 0.287861
vt 0.129952 0.230888
vt 0.139279 0.187194
vt 0.144787 0.191511
vt 0.435144 0.196275
vt 0.425669 0.247343
vt 0.123534 0.284655
vt 0.123419 0.229290
vt 0.443452 0.382252
vt 0.440287 0.342330
vt 0.448219 0.382880
vt 0.130060 0.282678
vt 0.139245 0.320920
vt 0.435144 0.341098
vt 0.448219 0.291102
vt 0.304771 0.217873
vt 0.248610 0.216760
vt 0.304807 0.212869
vt 0.426780 0.329424
vt 0.430339 0.288925
vt 0.214947 0.260094
vt 0.252282 0.221694
vt 0.430339 0.381098
vt 0.421957 0.329889
vt 0.209002 0.312481
vt 0.208697 0.257812
vt 0.435144 0.245949
vt 0.448225 0.290678
vt 0.443509 0.290270
vt 0.252239 0.345199
vt 0.215233 0.311232
vt 0.448225 0.195988
vt 0.439840 0.246258
vt 0.304761 0.344902
vt 0.248564 0.348793
vt 0.327948 0.651406
vt 0.252562 0.473083
vt 0.376654 0.522130
vt 0.192695 0.631986
vt 0.141151 0.449072
vt 0.193128 0.840981
vt 0.076681 0.848145
vt 0.076210 0.621440
vt 0.376551 0.932804
vt 0.328301 0.821435
vt 0.340693 0.809924
vt 0.520059 0.975992
vt 0.416607 0.975798
vt 0.367888 0.794924
vt 0.425020 0.585220
vt 0.457368 0.778731
vt 0.513306 0.547495
vt 0.548394 0.757404
vt 0.442690 0.551711
vt 0.486640 0.406583
vt 0.536086 0.455652
vt 0.738643 0.750902
vt 0.892372 0.976999
vt 0.782140 0.940102
vt 0.637782 0.721135
vt 0.782140 0.516433
vt 0.892372 0.517428
vt 0.845188 0.771766
vt 0.584109 0.234736
vt 0.750178 0.451951
vt 0.624193 0.391109
vt 0.700909 0.259740
vt 0.873522 0.483085
vt 0.724131 0.011542
vt 0.845269 0.005356
vt 0.820077 0.274588
vt 0.193408 0.966866
vt 0.031383 0.875378
vt 0.173627 0.877437
vt 0.058912 0.017964
vt 0.124141 0.029205
vt 0.063888 0.029205
vt 0.013001 0.630515
vt 0.178419 0.064272
vt 0.129206 0.017964
vt 0.526905 0.773172
vt 0.598960 0.930611
vt 0.402664 0.144765
vt 0.408591 0.088286
vt 0.417554 0.135773
vt 0.631227 0.728156
vt 0.402664 0.026665
vt 0.392207 0.089363
vt 0.950133 0.771660
vt 0.991419 0.951239
vt 0.406018 0.320232
vt 0.410968 0.267203
vt 0.421096 0.311256
vt 0.406018 0.205143
vt 0.394202 0.268836
vt 0.929231 0.266630
vt 0.975995 0.449065
vt 0.285572 0.186488
vt 0.288830 0.133702
vt 0.299790 0.176459
vt 0.278813 0.072191
vt 0.272785 0.136605
vt 0.119760 0.038876
vt 0.068169 0.038875
vt 0.093610 0.096341
vt 0.166323 0.068898
vt 0.155880 0.072862
vt 0.155878 0.120460
vt 0.123299 0.163405
vt 0.166322 0.124487
vt 0.119040 0.153784
vt 0.067449 0.153784
vt 0.020864 0.123712
vt 0.063047 0.163405
vt 0.031330 0.119797
vt 0.031331 0.072199
vt 0.020865 0.068123
vt 0.094514 0.335595
vt 0.082730 0.377309
vt 0.082730 0.338041
vt 0.094514 0.382417
vt 0.082730 0.391253
vt 0.157613 0.280343
vt 0.144787 0.329646
vt 0.147541 0.284489
vt 0.154510 0.332891
vt 0.147541 0.349268
vt 0.167549 0.329300
vt 0.170303 0.348922
vt 0.158410 0.355990
vt 0.070946 0.335595
vt 0.070946 0.382417
vt 0.231123 0.385201
vt 0.238973 0.402426
vt 0.225010 0.404085
vt 0.101627 0.402369
vt 0.107051 0.376193
vt 0.113428 0.398067
vt 0.094514 0.375268
vt 0.113428 0.342990
vt 0.436790 0.168208
vt 0.417554 0.139987
vt 0.431319 0.140371
vt 0.436790 0.102787
vt 0.438366 0.022438
vt 0.417554 0.049681
vt 0.426583 0.017964
vt 0.438366 0.089201
vt 0.428872 0.096576
vt 0.244535 0.420035
vt 0.232170 0.425146
vt 0.243235 0.374137
vt 0.230536 0.353091
vt 0.243235 0.348793
vt 0.040589 0.416799
vt 0.024336 0.375382
vt 0.038667 0.379581
vt 0.264852 0.385201
vt 0.247634 0.410777
vt 0.244535 0.387155
vt 0.139354 0.383534
vt 0.113664 0.335595
vt 0.131501 0.342871
vt 0.178419 0.394826
vt 0.193356 0.358888
vt 0.193356 0.399682
vt 0.144787 0.267635
vt 0.175385 0.223132
vt 0.175385 0.280343
vt 0.153865 0.177846
vt 0.167320 0.169479
vt 0.058860 0.375382
vt 0.070946 0.423021
vt 0.032257 0.356184
vt 0.043013 0.342412
vt 0.024043 0.342412
vt 0.032062 0.349597
vt 0.173779 0.281690
vt 0.170303 0.289802
vt 0.170905 0.280343
vt 0.178458 0.348793
vt 0.189352 0.353237
vt 0.257768 0.358936
vt 0.248642 0.358872
vt 0.257768 0.351817
vt 0.156371 0.171900
vt 0.167918 0.163405
vt 0.243235 0.354904
vt 0.245038 0.370026
vt 0.040791 0.335595
vt 0.177998 0.195956
vt 0.175385 0.185989
vt 0.177998 0.179682
vt 0.205907 0.362471
vt 0.212091 0.370256
vt 0.193356 0.370256
vt 0.264885 0.393165
vt 0.282758 0.390624
vt 0.280799 0.395514
vt 0.195173 0.355689
vt 0.211092 0.352967
vt 0.213960 0.385201
vt 0.225010 0.389751
vt 0.217465 0.401208
vt 0.284708 0.407134
vt 0.298892 0.396786
vt 0.300087 0.403117
vt 0.202911 0.390015
vt 0.284708 0.385201
vt 0.282758 0.396848
vt 0.198250 0.401171
vt 0.214295 0.370166
vt 0.228225 0.360740
vt 0.229575 0.366614
vt 0.202911 0.412215
vt 0.214295 0.348793
vt 0.212091 0.360627
vt 0.213960 0.416764
vt 0.268069 0.414219
vt 0.280783 0.402903
vt 0.282758 0.408470
vt 0.225010 0.411950
vt 0.264852 0.405178
vt 0.348167 0.391451
vt 0.323123 0.370589
vt 0.348167 0.384098
vt 0.323123 0.400921
vt 0.304807 0.360120
vt 0.345010 0.423199
vt 0.339295 0.443021
vt 0.304807 0.407915
vt 0.360903 0.397206
vt 0.353473 0.396852
vt 0.375662 0.424662
vt 0.397121 0.404026
vt 0.421409 0.412809
vt 0.387595 0.445324
vt 0.366105 0.384851
vt 0.366105 0.392204
vt 0.397122 0.373695
vt 0.375234 0.351416
vt 0.386921 0.329908
vt 0.421409 0.365014
vt 0.353369 0.379095
vt 0.360800 0.379450
vt 0.344582 0.349954
vt 0.338622 0.327605
vt 0.430549 0.195790
vt 0.144787 0.316782
vt 0.443452 0.290678
vt 0.435144 0.380519
vt 0.443509 0.195790
vt 0.304807 0.341559
vt 0.252436 0.977870
vt 0.437711 0.796062
vt 0.341571 0.637492
vt 0.371843 0.524657
vt 0.673171 0.530382
vt 0.603003 0.032812
vt 0.030843 0.964514
vt 0.013413 0.828882
vt 0.600524 0.544486
vt 0.417554 0.034544
vt 0.991419 0.549114
vt 0.421096 0.212609
vt 0.951274 0.031052
vt 0.293996 0.078490
vt 0.094514 0.398501
vt 0.170303 0.284144
vt 0.244535 0.388721
vt 0.104462 0.335595
vt 0.423658 0.173093
vt 0.425206 0.096576
vt 0.430274 0.048992
vt 0.229575 0.372447
vt 0.020864 0.423021
vt 0.264852 0.412309
vt 0.113428 0.383534
vt 0.153883 0.222141
vt 0.025615 0.335595
vt 0.173779 0.295317
vt 0.175385 0.168966
vt 0.178383 0.163405
vt 0.178383 0.179682
vt 0.246868 0.348793
vt 0.175509 0.197073
vt 0.268066 0.385201
vt 0.204493 0.348793
vt 0.300087 0.389620
vt 0.229575 0.353461
s 1
f 2/1/1 4/2/2 1/3/3
f 3/4/4 6/5/5 4/6/2
f 2/1/1 8/7/6 3/8/4
f 3/4/4 9/9/7 5/10/8
f 7/11/9 11/12/10 8/13/6
f 8/14/6 12/15/11 9/9/7
f 10/16/12 14/17/13 11/12/10
f 11/18/10 15/19/14 12/20/11
f 16/21/15 14/22/13 13/2/16
f 17/23/17 15/19/14 14/24/13
f 16/21/15 20/25/18 17/26/17
f 17/23/17 21/27/19 18/28/20
f 22/29/21 20/30/18 19/31/22
f 23/32/23 21/27/19 20/33/18
f 22/29/21 4/34/2 23/35/23
f 23/32/23 6/36/5 24/37/24
f 5/38/8 26/39/25 6/40/5
f 25/41/26 28/42/27 26/39/25
f 5/38/8 29/43/28 25/41/26
f 25/41/26 30/44/29 27/45/30
f 12/46/11 29/43/28 9/47/7
f 31/48/31 30/49/29 29/50/28
f 12/51/11 33/52/32 31/53/31
f 31/53/31 34/54/33 32/55/34
f 18/56/20 33/57/32 15/58/14
f 35/59/35 34/60/33 33/61/32
f 18/62/20 37/63/36 35/59/35
f 35/59/35 38/64/37 36/65/38
f 24/66/24 37/67/36 21/68/19
f 39/69/39 38/70/37 37/67/36
f 24/66/24 26/71/25 39/69/39
f 39/69/39 28/72/27 40/73/40
f 28/74/27 41/75/41 42/76/42
f 42/77/42 43/78/43 44/79/44
f 30/44/29 41/80/41 27/45/30
f 45/81/45 43/78/43 41/82/41
f 30/49/29 47/83/46 45/84/45
f 45/85/45 48/86/47 46/87/48
f 34/54/33 47/88/46 32/55/34
f 49/89/49 48/86/47 47/90/46
f 34/60/33 51/91/50 49/92/49
f 49/93/49 52/94/51 50/95/52
f 38/64/37 51/91/50 36/65/38
f 53/96/53 52/94/51 51/97/50
f 38/70/37 55/98/54 53/99/53
f 53/100/53 56/101/55 54/102/56
f 28/72/27 55/98/54 40/73/40
f 42/103/42 56/101/55 55/104/54
f 44/79/44 57/105/57 58/106/58
f 58/106/58 57/105/57 59/107/59
f 46/108/48 57/105/57 43/78/43
f 57/105/57 60/109/60 59/107/59
f 46/108/48 61/110/61 60/109/60
f 60/109/60 61/110/61 59/107/59
f 50/111/52 61/110/61 48/112/47
f 61/110/61 62/113/62 59/107/59
f 50/111/52 63/114/63 62/113/62
f 62/113/62 63/114/63 59/107/59
f 54/115/56 63/114/63 52/116/51
f 63/114/63 64/117/64 59/107/59
f 54/115/56 65/118/65 64/117/64
f 64/117/64 65/118/65 59/107/59
f 44/79/44 65/118/65 56/119/55
f 65/118/65 58/106/58 59/107/59
f 67/120/66 69/121/67 66/122/68
f 68/123/69 71/124/70 69/121/67
f 72/125/71 68/126/69 67/127/66
f 73/128/72 70/129/73 68/126/69
f 72/125/71 76/130/74 73/128/72
f 73/128/72 77/131/75 74/132/76
f 75/133/77 69/121/67 76/134/74
f 76/135/74 71/136/70 77/137/75
f 70/138/73 79/139/78 71/140/70
f 78/141/79 34/142/80 79/139/78
f 70/143/73 81/144/81 78/145/79
f 81/144/81 80/146/82 78/145/79
f 77/147/75 81/148/81 74/149/76
f 81/148/81 84/150/83 82/151/84
f 77/137/75 79/152/78 83/153/85
f 83/154/85 34/155/80 84/156/83
f 85/157/86 87/158/87 88/159/88
f 87/160/87 90/161/89 88/162/88
f 86/163/90 92/164/91 87/165/87
f 92/166/91 89/167/92 87/168/87
f 94/169/93 92/170/91 91/171/94
f 92/170/91 96/172/95 93/173/96
f 85/157/86 95/174/97 94/175/93
f 95/174/97 90/176/89 96/177/95
f 89/178/92 98/179/98 90/176/89
f 98/180/98 99/181/99 100/182/100
f 93/183/96 97/184/101 89/167/92
f 97/185/101 102/186/102 99/187/99
f 93/173/96 103/188/103 101/189/104
f 103/190/103 102/186/102 101/191/104
f 96/177/95 98/179/98 103/192/103
f 98/193/98 104/194/105 103/195/103
f 105/196/106 106/197/107 107/198/108
f 106/199/107 108/200/109 109/201/110
f 110/202/111 105/196/106 107/198/108
f 110/202/111 108/203/109 105/196/106
f 112/204/112 110/205/111 107/206/108
f 110/207/111 113/208/113 111/209/114
f 114/210/115 112/204/112 107/206/108
f 114/211/115 113/208/113 112/212/112
f 116/213/116 114/210/115 107/206/108
f 114/214/115 117/215/117 115/216/118
f 118/217/119 116/213/116 107/206/108
f 118/218/119 117/215/117 116/219/116
f 120/220/120 118/217/119 107/206/108
f 118/221/119 121/222/121 119/223/122
f 106/224/107 120/220/120 107/206/108
f 106/199/107 121/222/121 120/225/120
f 108/226/109 123/227/123 109/228/110
f 122/229/124 125/230/125 123/227/123
f 108/226/109 126/231/126 122/229/124
f 122/229/124 127/232/127 124/233/128
f 113/234/113 126/231/126 111/235/114
f 128/236/129 127/232/127 126/231/126
f 113/234/113 130/237/130 128/236/129
f 128/236/129 131/238/131 129/239/132
f 117/240/117 130/237/130 115/241/118
f 132/242/133 131/238/131 130/237/130
f 117/240/117 134/243/134 132/242/133
f 132/242/133 135/244/135 133/245/136
f 121/246/121 134/243/134 119/247/122
f 136/248/137 135/244/135 134/243/134
f 121/246/121 123/227/123 136/248/137
f 136/248/137 125/230/125 137/249/138
f 2/1/1 3/8/4 4/2/2
f 3/4/4 5/10/8 6/5/5
f 2/1/1 7/250/9 8/7/6
f 3/4/4 8/14/6 9/9/7
f 7/11/9 10/16/12 11/12/10
f 8/14/6 11/251/10 12/15/11
f 10/16/12 13/252/16 14/17/13
f 11/18/10 14/24/13 15/19/14
f 16/21/15 17/26/17 14/22/13
f 17/23/17 18/28/20 15/19/14
f 16/21/15 19/253/22 20/25/18
f 17/23/17 20/33/18 21/27/19
f 22/29/21 23/35/23 20/30/18
f 23/32/23 24/37/24 21/27/19
f 22/29/21 1/254/3 4/34/2
f 23/32/23 4/255/2 6/36/5
f 5/38/8 25/41/26 26/39/25
f 25/41/26 27/45/30 28/42/27
f 5/38/8 9/47/7 29/43/28
f 25/41/26 29/43/28 30/44/29
f 12/46/11 31/256/31 29/43/28
f 31/48/31 32/257/34 30/49/29
f 12/51/11 15/258/14 33/52/32
f 31/53/31 33/52/32 34/54/33
f 18/56/20 35/259/35 33/57/32
f 35/59/35 36/65/38 34/60/33
f 18/62/20 21/260/19 37/63/36
f 35/59/35 37/63/36 38/64/37
f 24/66/24 39/69/39 37/67/36
f 39/69/39 40/73/40 38/70/37
f 24/66/24 6/261/5 26/71/25
f 39/69/39 26/71/25 28/72/27
f 28/74/27 27/262/30 41/75/41
f 42/77/42 41/82/41 43/78/43
f 30/44/29 45/263/45 41/80/41
f 45/81/45 46/108/48 43/78/43
f 30/49/29 32/257/34 47/83/46
f 45/85/45 47/90/46 48/86/47
f 34/54/33 49/264/49 47/88/46
f 49/89/49 50/265/52 48/86/47
f 34/60/33 36/65/38 51/91/50
f 49/93/49 51/97/50 52/94/51
f 38/64/37 53/266/53 51/91/50
f 53/96/53 54/267/56 52/94/51
f 38/70/37 40/73/40 55/98/54
f 53/100/53 55/104/54 56/101/55
f 28/72/27 42/268/42 55/98/54
f 42/103/42 44/269/44 56/101/55
f 44/79/44 43/78/43 57/105/57
f 46/108/48 60/109/60 57/105/57
f 46/108/48 48/112/47 61/110/61
f 50/111/52 62/113/62 61/110/61
f 50/111/52 52/116/51 63/114/63
f 54/115/56 64/117/64 63/114/63
f 54/115/56 56/119/55 65/118/65
f 44/79/44 58/106/58 65/118/65
f 67/120/66 68/123/69 69/121/67
f 68/123/69 70/270/73 71/124/70
f 72/125/71 73/128/72 68/126/69
f 73/128/72 74/132/76 70/129/73
f 72/125/71 75/271/77 76/130/74
f 73/128/72 76/130/74 77/131/75
f 75/133/77 66/122/68 69/121/67
f 76/135/74 69/272/67 71/136/70
f 70/138/73 78/141/79 79/139/78
f 78/141/79 80/273/82 34/142/80
f 70/143/73 74/274/76 81/144/81
f 81/144/81 82/275/84 80/146/82
f 77/147/75 83/276/85 81/148/81
f 81/148/81 83/276/85 84/150/83
f 77/137/75 71/136/70 79/152/78
f 83/154/85 79/277/78 34/155/80
f 85/157/86 86/278/90 87/158/87
f 87/160/87 89/279/92 90/161/89
f 86/163/90 91/280/94 92/164/91
f 92/166/91 93/183/96 89/167/92
f 94/169/93 95/281/97 92/170/91
f 92/170/91 95/281/97 96/172/95
f 85/157/86 88/159/88 95/174/97
f 95/174/97 88/159/88 90/176/89
f 89/178/92 97/282/101 98/179/98
f 98/180/98 97/283/101 99/181/99
f 93/284/96 101/285/104 97/286/101
f 97/185/101 101/191/104 102/186/102
f 93/173/96 96/172/95 103/188/103
f 103/190/103 104/287/105 102/186/102
f 96/177/95 90/176/89 98/179/98
f 98/193/98 100/288/100 104/194/105
f 106/199/107 105/289/106 108/200/109
f 110/202/111 111/290/114 108/203/109
f 110/207/111 112/212/112 113/208/113
f 114/211/115 115/291/118 113/208/113
f 114/214/115 116/219/116 117/215/117
f 118/218/119 119/292/122 117/215/117
f 118/221/119 120/225/120 121/222/121
f 106/199/107 109/201/110 121/222/121
f 108/226/109 122/229/124 123/227/123
f 122/229/124 124/233/128 125/230/125
f 108/226/109 111/235/114 126/231/126
f 122/229/124 126/231/126 127/232/127
f 113/234/113 128/236/129 126/231/126
f 128/236/129 129/239/132 127/232/127
f 113/234/113 115/241/118 130/237/130
f 128/236/129 130/237/130 131/238/131
f 117/240/117 132/242/133 130/237/130
f 132/242/133 133/245/136 131/238/131
f 117/240/117 119/247/122 134/243/134
f 132/242/133 134/243/134 135/244/135
f 121/246/121 136/248/137 134/243/134
f 136/248/137 137/249/138 135/244/135
f 121/246/121 109/228/110 123/227/123
f 136/248/137 123/227/123 125/230/125
